<mxfile host="65bd71144e">
    <diagram name="Page-1" id="zWIe_XC4XMMiUAsG-kgF">
        <mxGraphModel dx="970" dy="2964" grid="1" gridSize="10" guides="1" tooltips="1" connect="1" arrows="1" fold="1" page="1" pageScale="1" pageWidth="850" pageHeight="1100" background="#ffffff" math="0" shadow="0">
            <root>
                <mxCell id="0"/>
                <mxCell id="1" parent="0"/>
                <mxCell id="lImU5mxE9tPZku4qOtsT-173" value="Planet DEV" style="shape=rect;html=1;verticalAlign=top;fontStyle=1;whiteSpace=wrap;align=center;fontSize=34;fillColor=#f5f5f5;fontColor=#333333;strokeColor=#666666;" parent="1" vertex="1">
                    <mxGeometry x="1300" y="-50" width="990" height="2450" as="geometry"/>
                </mxCell>
                <mxCell id="lImU5mxE9tPZku4qOtsT-4" value="admin" style="html=1;overflow=block;blockSpacing=1;shape=umlActor;labelPosition=center;verticalLabelPosition=bottom;verticalAlign=top;whiteSpace=nowrap;fontSize=13;fontColor=#333333;align=center;spacing=0;strokeColor=#333333;strokeOpacity=100;fillOpacity=100;fillColor=#ffffff;strokeWidth=1.5;lucidId=tBczUUkCsLpC;" parent="1" vertex="1">
                    <mxGeometry x="925" y="900.5" width="60" height="135" as="geometry"/>
                </mxCell>
                <mxCell id="lImU5mxE9tPZku4qOtsT-6" value="create tags" style="html=1;overflow=block;blockSpacing=1;whiteSpace=wrap;ellipse;fontSize=13;spacing=3.8;strokeColor=#333333;strokeOpacity=100;fillOpacity=100;fillColor=#ffffff;strokeWidth=1.5;lucidId=-OczOLFhE.FA;" parent="1" vertex="1">
                    <mxGeometry x="1530" y="278" width="120" height="90" as="geometry"/>
                </mxCell>
                <mxCell id="lImU5mxE9tPZku4qOtsT-7" value="update tags" style="html=1;overflow=block;blockSpacing=1;whiteSpace=wrap;ellipse;fontSize=13;spacing=3.8;strokeColor=#333333;strokeOpacity=100;fillOpacity=100;fillColor=#ffffff;strokeWidth=1.5;lucidId=lPczHcS5dMgs;" parent="1" vertex="1">
                    <mxGeometry x="1530" y="379" width="120" height="90" as="geometry"/>
                </mxCell>
                <mxCell id="lImU5mxE9tPZku4qOtsT-8" value="show tags" style="html=1;overflow=block;blockSpacing=1;whiteSpace=wrap;ellipse;fontSize=13;spacing=3.8;strokeColor=#333333;strokeOpacity=100;fillOpacity=100;fillColor=#ffffff;strokeWidth=1.5;lucidId=mPcz-K8VentS;" parent="1" vertex="1">
                    <mxGeometry x="1530" y="480" width="120" height="90" as="geometry"/>
                </mxCell>
                <mxCell id="lImU5mxE9tPZku4qOtsT-9" value="Delete tags" style="html=1;overflow=block;blockSpacing=1;whiteSpace=wrap;ellipse;fontSize=13;spacing=3.8;strokeColor=#333333;strokeOpacity=100;fillOpacity=100;fillColor=#ffffff;strokeWidth=1.5;lucidId=mPczvHIls3h_;" parent="1" vertex="1">
                    <mxGeometry x="1530" y="586" width="120" height="90" as="geometry"/>
                </mxCell>
                <mxCell id="lImU5mxE9tPZku4qOtsT-14" value="update article" style="html=1;overflow=block;blockSpacing=1;whiteSpace=wrap;ellipse;fontSize=13;spacing=3.8;strokeColor=#333333;strokeOpacity=100;fillOpacity=100;fillColor=#ffffff;strokeWidth=1.5;lucidId=pRczkUZpk~8d;" parent="1" vertex="1">
                    <mxGeometry x="1530" y="1304" width="120" height="90" as="geometry"/>
                </mxCell>
                <mxCell id="lImU5mxE9tPZku4qOtsT-15" value="show articles" style="html=1;overflow=block;blockSpacing=1;whiteSpace=wrap;ellipse;fontSize=13;spacing=3.8;strokeColor=#333333;strokeOpacity=100;fillOpacity=100;fillColor=#ffffff;strokeWidth=1.5;lucidId=pRczwq9towOw;" parent="1" vertex="1">
                    <mxGeometry x="1530" y="1405" width="120" height="90" as="geometry"/>
                </mxCell>
                <mxCell id="lImU5mxE9tPZku4qOtsT-16" value="Delete article" style="html=1;overflow=block;blockSpacing=1;whiteSpace=wrap;ellipse;fontSize=13;spacing=3.8;strokeColor=#333333;strokeOpacity=100;fillOpacity=100;fillColor=#ffffff;strokeWidth=1.5;lucidId=pRczV1mXVgs1;" parent="1" vertex="1">
                    <mxGeometry x="1530" y="1510" width="120" height="90" as="geometry"/>
                </mxCell>
                <mxCell id="lImU5mxE9tPZku4qOtsT-17" value="update comment" style="html=1;overflow=block;blockSpacing=1;whiteSpace=wrap;ellipse;fontSize=13;spacing=3.8;strokeColor=#333333;strokeOpacity=100;fillOpacity=100;fillColor=#ffffff;strokeWidth=1.5;lucidId=5RczTBme2vc.;" parent="1" vertex="1">
                    <mxGeometry x="1530" y="1720" width="120" height="90" as="geometry"/>
                </mxCell>
                <mxCell id="lImU5mxE9tPZku4qOtsT-18" value="show comments" style="html=1;overflow=block;blockSpacing=1;whiteSpace=wrap;ellipse;fontSize=13;spacing=3.8;strokeColor=#333333;strokeOpacity=100;fillOpacity=100;fillColor=#ffffff;strokeWidth=1.5;lucidId=5Rcz2xCz10ZM;" parent="1" vertex="1">
                    <mxGeometry x="1530" y="1821" width="120" height="90" as="geometry"/>
                </mxCell>
                <mxCell id="lImU5mxE9tPZku4qOtsT-19" value="Delete comment" style="html=1;overflow=block;blockSpacing=1;whiteSpace=wrap;ellipse;fontSize=13;spacing=3.8;strokeColor=#333333;strokeOpacity=100;fillOpacity=100;fillColor=#ffffff;strokeWidth=1.5;lucidId=5RczCsYFRNHl;" parent="1" vertex="1">
                    <mxGeometry x="1530" y="1926" width="120" height="90" as="geometry"/>
                </mxCell>
                <mxCell id="lImU5mxE9tPZku4qOtsT-22" value="" style="html=1;jettySize=18;whiteSpace=wrap;fontSize=13;strokeColor=#333333;strokeOpacity=100;dashed=1;fixDash=1;dashPattern=16 6;strokeWidth=0.8;rounded=0;startArrow=none;endArrow=block;endFill=1;exitX=1.006;exitY=0.5;exitPerimeter=0;entryX=0;entryY=0.5;lucidId=nUczEhE1W-n-;entryDx=0;entryDy=0;" parent="1" source="lImU5mxE9tPZku4qOtsT-6" target="lImU5mxE9tPZku4qOtsT-3" edge="1">
                    <mxGeometry width="100" height="100" relative="1" as="geometry">
                        <Array as="points"/>
                    </mxGeometry>
                </mxCell>
                <mxCell id="lImU5mxE9tPZku4qOtsT-23" value="" style="html=1;jettySize=18;whiteSpace=wrap;fontSize=13;strokeColor=#333333;strokeOpacity=100;dashed=1;fixDash=1;dashPattern=16 6;strokeWidth=0.8;rounded=0;startArrow=none;endArrow=block;endFill=1;exitX=1.006;exitY=0.5;exitPerimeter=0;lucidId=HUczbJhwyWPL;entryX=0;entryY=0.5;entryDx=0;entryDy=0;" parent="1" source="lImU5mxE9tPZku4qOtsT-7" target="lImU5mxE9tPZku4qOtsT-3" edge="1">
                    <mxGeometry width="100" height="100" relative="1" as="geometry">
                        <Array as="points"/>
                        <mxPoint x="1940" y="906" as="targetPoint"/>
                    </mxGeometry>
                </mxCell>
                <mxCell id="lImU5mxE9tPZku4qOtsT-24" value="" style="html=1;jettySize=18;whiteSpace=wrap;fontSize=13;strokeColor=#333333;strokeOpacity=100;dashed=1;fixDash=1;dashPattern=16 6;strokeWidth=0.8;rounded=0;startArrow=none;endArrow=block;endFill=1;exitX=1.006;exitY=0.5;exitPerimeter=0;entryX=0;entryY=0.5;lucidId=2Ucz1rJ_qaZM;entryDx=0;entryDy=0;" parent="1" source="lImU5mxE9tPZku4qOtsT-8" target="lImU5mxE9tPZku4qOtsT-3" edge="1">
                    <mxGeometry width="100" height="100" relative="1" as="geometry">
                        <Array as="points"/>
                    </mxGeometry>
                </mxCell>
                <mxCell id="lImU5mxE9tPZku4qOtsT-25" value="" style="html=1;jettySize=18;whiteSpace=wrap;fontSize=13;strokeColor=#333333;strokeOpacity=100;dashed=1;fixDash=1;dashPattern=16 6;strokeWidth=0.8;rounded=0;startArrow=none;endArrow=block;endFill=1;exitX=1.006;exitY=0.5;exitPerimeter=0;entryX=0.008;entryY=0.519;entryPerimeter=0;lucidId=_UczYvTYnV-N;entryDx=0;entryDy=0;" parent="1" source="lImU5mxE9tPZku4qOtsT-9" target="lImU5mxE9tPZku4qOtsT-3" edge="1">
                    <mxGeometry width="100" height="100" relative="1" as="geometry">
                        <Array as="points"/>
                    </mxGeometry>
                </mxCell>
                <mxCell id="lImU5mxE9tPZku4qOtsT-30" value="" style="html=1;jettySize=18;whiteSpace=wrap;fontSize=13;strokeColor=#333333;strokeOpacity=100;dashed=1;fixDash=1;dashPattern=16 6;strokeWidth=0.8;rounded=0;startArrow=none;endArrow=block;endFill=1;exitX=1.006;exitY=0.5;exitPerimeter=0;entryX=0;entryY=0.5;lucidId=NVczvDNpjGym;entryDx=0;entryDy=0;" parent="1" source="lImU5mxE9tPZku4qOtsT-14" target="lImU5mxE9tPZku4qOtsT-3" edge="1">
                    <mxGeometry width="100" height="100" relative="1" as="geometry">
                        <Array as="points"/>
                    </mxGeometry>
                </mxCell>
                <mxCell id="lImU5mxE9tPZku4qOtsT-31" value="" style="html=1;jettySize=18;whiteSpace=wrap;fontSize=13;strokeColor=#333333;strokeOpacity=100;dashed=1;fixDash=1;dashPattern=16 6;strokeWidth=0.8;rounded=0;startArrow=none;endArrow=block;endFill=1;exitX=1.006;exitY=0.5;exitPerimeter=0;entryX=0;entryY=0.5;lucidId=3VczkHUfEORD;entryDx=0;entryDy=0;" parent="1" source="lImU5mxE9tPZku4qOtsT-15" target="lImU5mxE9tPZku4qOtsT-3" edge="1">
                    <mxGeometry width="100" height="100" relative="1" as="geometry">
                        <Array as="points"/>
                    </mxGeometry>
                </mxCell>
                <mxCell id="lImU5mxE9tPZku4qOtsT-32" value="" style="html=1;jettySize=18;whiteSpace=wrap;fontSize=13;strokeColor=#333333;strokeOpacity=100;dashed=1;fixDash=1;dashPattern=16 6;strokeWidth=0.8;rounded=0;startArrow=none;endArrow=block;endFill=1;exitX=1.006;exitY=0.5;exitPerimeter=0;entryX=0;entryY=0.5;lucidId=9Vcz52U6l2vY;entryDx=0;entryDy=0;" parent="1" source="lImU5mxE9tPZku4qOtsT-16" target="lImU5mxE9tPZku4qOtsT-3" edge="1">
                    <mxGeometry width="100" height="100" relative="1" as="geometry">
                        <Array as="points"/>
                    </mxGeometry>
                </mxCell>
                <mxCell id="lImU5mxE9tPZku4qOtsT-33" value="" style="html=1;jettySize=18;whiteSpace=wrap;fontSize=13;strokeColor=#333333;strokeOpacity=100;dashed=1;fixDash=1;dashPattern=16 6;strokeWidth=0.8;rounded=0;startArrow=none;endArrow=block;endFill=1;exitX=1.006;exitY=0.5;exitPerimeter=0;entryX=0;entryY=0.5;lucidId=dWcz5qQPDKWH;entryDx=0;entryDy=0;" parent="1" source="lImU5mxE9tPZku4qOtsT-17" target="lImU5mxE9tPZku4qOtsT-3" edge="1">
                    <mxGeometry width="100" height="100" relative="1" as="geometry">
                        <Array as="points"/>
                    </mxGeometry>
                </mxCell>
                <mxCell id="lImU5mxE9tPZku4qOtsT-34" value="" style="html=1;jettySize=18;whiteSpace=wrap;fontSize=13;strokeColor=#333333;strokeOpacity=100;dashed=1;fixDash=1;dashPattern=16 6;strokeWidth=0.8;rounded=0;startArrow=none;endArrow=block;endFill=1;exitX=1.006;exitY=0.5;exitPerimeter=0;entryX=0;entryY=0.5;lucidId=kWczn-BLne5K;entryDx=0;entryDy=0;" parent="1" source="lImU5mxE9tPZku4qOtsT-18" target="lImU5mxE9tPZku4qOtsT-3" edge="1">
                    <mxGeometry width="100" height="100" relative="1" as="geometry">
                        <Array as="points"/>
                    </mxGeometry>
                </mxCell>
                <mxCell id="lImU5mxE9tPZku4qOtsT-35" value="" style="html=1;jettySize=18;whiteSpace=wrap;fontSize=13;strokeColor=#333333;strokeOpacity=100;dashed=1;fixDash=1;dashPattern=16 6;strokeWidth=0.8;rounded=0;startArrow=none;endArrow=block;endFill=1;exitX=1.006;exitY=0.5;exitPerimeter=0;entryX=0;entryY=0.5;lucidId=pWczVvhZtqHQ;entryDx=0;entryDy=0;" parent="1" source="lImU5mxE9tPZku4qOtsT-19" target="lImU5mxE9tPZku4qOtsT-3" edge="1">
                    <mxGeometry width="100" height="100" relative="1" as="geometry">
                        <Array as="points"/>
                    </mxGeometry>
                </mxCell>
                <mxCell id="lImU5mxE9tPZku4qOtsT-36" value="" style="html=1;jettySize=18;whiteSpace=wrap;fontSize=13;strokeColor=#333333;strokeOpacity=100;strokeWidth=0.8;rounded=0;startArrow=none;endArrow=none;entryX=-0.006;entryY=0.5;entryPerimeter=0;lucidId=XWczGqgOvYOB;exitX=0.5;exitY=0.5;exitDx=0;exitDy=0;exitPerimeter=0;" parent="1" source="lImU5mxE9tPZku4qOtsT-4" target="lImU5mxE9tPZku4qOtsT-5" edge="1">
                    <mxGeometry width="100" height="100" relative="1" as="geometry">
                        <Array as="points"/>
                        <mxPoint x="1030" y="980" as="sourcePoint"/>
                    </mxGeometry>
                </mxCell>
                <mxCell id="lImU5mxE9tPZku4qOtsT-37" value="" style="html=1;jettySize=18;whiteSpace=wrap;fontSize=13;strokeColor=#333333;strokeOpacity=100;strokeWidth=0.8;rounded=0;startArrow=none;endArrow=none;exitX=0.513;exitY=0.5;exitPerimeter=0;entryX=-0.006;entryY=0.5;entryPerimeter=0;lucidId=jXczujZLF5rr;" parent="1" source="lImU5mxE9tPZku4qOtsT-4" target="lImU5mxE9tPZku4qOtsT-6" edge="1">
                    <mxGeometry width="100" height="100" relative="1" as="geometry">
                        <Array as="points"/>
                    </mxGeometry>
                </mxCell>
                <mxCell id="lImU5mxE9tPZku4qOtsT-38" value="" style="html=1;jettySize=18;whiteSpace=wrap;fontSize=13;strokeColor=#333333;strokeOpacity=100;strokeWidth=0.8;rounded=0;startArrow=none;endArrow=none;exitX=0.755;exitY=0.324;exitPerimeter=0;entryX=-0.006;entryY=0.5;entryPerimeter=0;lucidId=NXczb3Hv89uJ;" parent="1" source="lImU5mxE9tPZku4qOtsT-4" target="lImU5mxE9tPZku4qOtsT-7" edge="1">
                    <mxGeometry width="100" height="100" relative="1" as="geometry">
                        <Array as="points"/>
                    </mxGeometry>
                </mxCell>
                <mxCell id="lImU5mxE9tPZku4qOtsT-39" value="" style="html=1;jettySize=18;whiteSpace=wrap;fontSize=13;strokeColor=#333333;strokeOpacity=100;strokeWidth=0.8;rounded=0;startArrow=none;endArrow=none;exitX=0.5;exitY=0.537;exitPerimeter=0;entryX=-0.006;entryY=0.5;entryPerimeter=0;lucidId=XXczBQT8Kz.I;" parent="1" source="lImU5mxE9tPZku4qOtsT-4" target="lImU5mxE9tPZku4qOtsT-8" edge="1">
                    <mxGeometry width="100" height="100" relative="1" as="geometry">
                        <Array as="points"/>
                    </mxGeometry>
                </mxCell>
                <mxCell id="lImU5mxE9tPZku4qOtsT-40" value="" style="html=1;jettySize=18;whiteSpace=wrap;fontSize=13;strokeColor=#333333;strokeOpacity=100;strokeWidth=0.8;rounded=0;startArrow=none;endArrow=none;exitX=0.513;exitY=0.5;exitPerimeter=0;entryX=-0.006;entryY=0.478;entryPerimeter=0;lucidId=iYczf05nKQKL;" parent="1" source="lImU5mxE9tPZku4qOtsT-4" target="lImU5mxE9tPZku4qOtsT-9" edge="1">
                    <mxGeometry width="100" height="100" relative="1" as="geometry">
                        <Array as="points"/>
                    </mxGeometry>
                </mxCell>
                <mxCell id="lImU5mxE9tPZku4qOtsT-41" value="" style="html=1;jettySize=18;whiteSpace=wrap;fontSize=13;strokeColor=#333333;strokeOpacity=100;strokeWidth=0.8;rounded=0;startArrow=none;endArrow=none;exitX=0.513;exitY=0.5;exitPerimeter=0;entryX=-0.006;entryY=0.5;entryPerimeter=0;lucidId=vYczp.t-snrO;" parent="1" source="lImU5mxE9tPZku4qOtsT-4" target="lImU5mxE9tPZku4qOtsT-10" edge="1">
                    <mxGeometry width="100" height="100" relative="1" as="geometry">
                        <Array as="points"/>
                    </mxGeometry>
                </mxCell>
                <mxCell id="lImU5mxE9tPZku4qOtsT-42" value="" style="html=1;jettySize=18;whiteSpace=wrap;fontSize=13;strokeColor=#333333;strokeOpacity=100;strokeWidth=0.8;rounded=0;startArrow=none;endArrow=none;exitX=0.5;exitY=0.537;exitPerimeter=0;entryX=-0.006;entryY=0.5;entryPerimeter=0;lucidId=OYcz.m~D9pvN;" parent="1" source="lImU5mxE9tPZku4qOtsT-4" target="lImU5mxE9tPZku4qOtsT-11" edge="1">
                    <mxGeometry width="100" height="100" relative="1" as="geometry">
                        <Array as="points"/>
                    </mxGeometry>
                </mxCell>
                <mxCell id="lImU5mxE9tPZku4qOtsT-43" value="" style="html=1;jettySize=18;whiteSpace=wrap;fontSize=13;strokeColor=#333333;strokeOpacity=100;strokeWidth=0.8;rounded=0;startArrow=none;endArrow=none;exitX=0.5;exitY=0.537;exitPerimeter=0;entryX=-0.006;entryY=0.5;entryPerimeter=0;lucidId=YYczqdEtgtLw;" parent="1" source="lImU5mxE9tPZku4qOtsT-4" target="lImU5mxE9tPZku4qOtsT-12" edge="1">
                    <mxGeometry width="100" height="100" relative="1" as="geometry">
                        <Array as="points"/>
                    </mxGeometry>
                </mxCell>
                <mxCell id="lImU5mxE9tPZku4qOtsT-44" value="" style="html=1;jettySize=18;whiteSpace=wrap;fontSize=13;strokeColor=#333333;strokeOpacity=100;strokeWidth=0.8;rounded=0;startArrow=none;endArrow=none;exitX=0.513;exitY=0.5;exitPerimeter=0;entryX=-0.006;entryY=0.5;entryPerimeter=0;lucidId=4YczjgSdCfhH;" parent="1" source="lImU5mxE9tPZku4qOtsT-4" target="lImU5mxE9tPZku4qOtsT-13" edge="1">
                    <mxGeometry width="100" height="100" relative="1" as="geometry">
                        <Array as="points"/>
                    </mxGeometry>
                </mxCell>
                <mxCell id="lImU5mxE9tPZku4qOtsT-45" value="" style="html=1;jettySize=18;whiteSpace=wrap;fontSize=13;strokeColor=#333333;strokeOpacity=100;strokeWidth=0.8;rounded=0;startArrow=none;endArrow=none;exitX=0.5;exitY=0.537;exitPerimeter=0;entryX=0.082;entryY=0.213;entryPerimeter=0;lucidId=9Ycz~yxfQZIG;" parent="1" source="lImU5mxE9tPZku4qOtsT-4" target="lImU5mxE9tPZku4qOtsT-14" edge="1">
                    <mxGeometry width="100" height="100" relative="1" as="geometry">
                        <Array as="points"/>
                    </mxGeometry>
                </mxCell>
                <mxCell id="lImU5mxE9tPZku4qOtsT-46" value="" style="html=1;jettySize=18;whiteSpace=wrap;fontSize=13;strokeColor=#333333;strokeOpacity=100;strokeWidth=0.8;rounded=0;startArrow=none;endArrow=none;exitX=0.61;exitY=0.594;exitPerimeter=0;entryX=-0.006;entryY=0.5;entryPerimeter=0;lucidId=dZcze0sJb3LS;" parent="1" source="lImU5mxE9tPZku4qOtsT-4" target="lImU5mxE9tPZku4qOtsT-16" edge="1">
                    <mxGeometry width="100" height="100" relative="1" as="geometry">
                        <Array as="points"/>
                    </mxGeometry>
                </mxCell>
                <mxCell id="lImU5mxE9tPZku4qOtsT-47" value="" style="html=1;jettySize=18;whiteSpace=wrap;fontSize=13;strokeColor=#333333;strokeOpacity=100;strokeWidth=0.8;rounded=0;startArrow=none;endArrow=none;exitX=0.5;exitY=0.537;exitPerimeter=0;entryX=-0.006;entryY=0.5;entryPerimeter=0;lucidId=lZczDSxRw5xt;" parent="1" source="lImU5mxE9tPZku4qOtsT-4" target="lImU5mxE9tPZku4qOtsT-15" edge="1">
                    <mxGeometry width="100" height="100" relative="1" as="geometry">
                        <Array as="points"/>
                    </mxGeometry>
                </mxCell>
                <mxCell id="lImU5mxE9tPZku4qOtsT-48" value="" style="html=1;jettySize=18;whiteSpace=wrap;fontSize=13;strokeColor=#333333;strokeOpacity=100;strokeWidth=0.8;rounded=0;startArrow=none;endArrow=none;exitX=0.488;exitY=0.5;exitPerimeter=0;entryX=-0.006;entryY=0.5;entryPerimeter=0;lucidId=rZcznPvrOlgP;" parent="1" source="lImU5mxE9tPZku4qOtsT-4" target="lImU5mxE9tPZku4qOtsT-17" edge="1">
                    <mxGeometry width="100" height="100" relative="1" as="geometry">
                        <Array as="points"/>
                    </mxGeometry>
                </mxCell>
                <mxCell id="lImU5mxE9tPZku4qOtsT-49" value="" style="html=1;jettySize=18;whiteSpace=wrap;fontSize=13;strokeColor=#333333;strokeOpacity=100;strokeWidth=0.8;rounded=0;startArrow=none;endArrow=none;exitX=0.513;exitY=0.5;exitPerimeter=0;entryX=-0.006;entryY=0.5;entryPerimeter=0;lucidId=xZczZ3zhUWlJ;" parent="1" source="lImU5mxE9tPZku4qOtsT-4" target="lImU5mxE9tPZku4qOtsT-18" edge="1">
                    <mxGeometry width="100" height="100" relative="1" as="geometry">
                        <Array as="points"/>
                    </mxGeometry>
                </mxCell>
                <mxCell id="lImU5mxE9tPZku4qOtsT-50" value="" style="html=1;jettySize=18;whiteSpace=wrap;fontSize=13;strokeColor=#333333;strokeOpacity=100;strokeWidth=0.8;rounded=0;startArrow=none;endArrow=none;entryX=-0.006;entryY=0.5;entryPerimeter=0;lucidId=WZczoNAO7BcZ;exitX=0.5;exitY=0.5;exitDx=0;exitDy=0;exitPerimeter=0;" parent="1" source="lImU5mxE9tPZku4qOtsT-4" target="lImU5mxE9tPZku4qOtsT-19" edge="1">
                    <mxGeometry width="100" height="100" relative="1" as="geometry">
                        <Array as="points"/>
                        <mxPoint x="1072" y="973" as="sourcePoint"/>
                    </mxGeometry>
                </mxCell>
                <mxCell id="lImU5mxE9tPZku4qOtsT-54" value="user" style="html=1;overflow=block;blockSpacing=1;shape=umlActor;labelPosition=center;verticalLabelPosition=bottom;verticalAlign=top;whiteSpace=nowrap;fontSize=13;fontColor=#333333;align=center;spacing=0;strokeColor=#333333;strokeOpacity=100;fillOpacity=100;fillColor=#ffffff;strokeWidth=1.5;lucidId=tBczUUkCsLpC;" parent="1" vertex="1">
                    <mxGeometry x="920" y="1382.5" width="65" height="135" as="geometry"/>
                </mxCell>
                <mxCell id="lImU5mxE9tPZku4qOtsT-76" value="" style="html=1;jettySize=18;whiteSpace=wrap;fontSize=13;strokeColor=#333333;strokeOpacity=100;dashed=1;fixDash=1;dashPattern=16 6;strokeWidth=0.8;rounded=0;startArrow=none;endArrow=block;endFill=1;exitX=1.006;exitY=0.5;exitPerimeter=0;lucidId=qVcz-nqJ.ps-;entryX=0;entryY=0.5;entryDx=0;entryDy=0;" parent="1" source="lImU5mxE9tPZku4qOtsT-60" target="lImU5mxE9tPZku4qOtsT-3" edge="1">
                    <mxGeometry width="100" height="100" relative="1" as="geometry">
                        <Array as="points"/>
                        <mxPoint x="2750" y="910" as="targetPoint"/>
                    </mxGeometry>
                </mxCell>
                <mxCell id="lImU5mxE9tPZku4qOtsT-91" value="" style="html=1;jettySize=18;whiteSpace=wrap;fontSize=13;strokeColor=#333333;strokeOpacity=100;strokeWidth=0.8;rounded=0;startArrow=none;endArrow=none;exitX=0.5;exitY=0.5;exitPerimeter=0;entryX=-0.006;entryY=0.5;entryPerimeter=0;lucidId=vYczp.t-snrO;exitDx=0;exitDy=0;" parent="1" source="7" target="lImU5mxE9tPZku4qOtsT-60" edge="1">
                    <mxGeometry width="100" height="100" relative="1" as="geometry">
                        <Array as="points"/>
                    </mxGeometry>
                </mxCell>
                <mxCell id="lImU5mxE9tPZku4qOtsT-95" value="" style="html=1;jettySize=18;whiteSpace=wrap;fontSize=13;strokeColor=#333333;strokeOpacity=100;strokeWidth=0.8;rounded=0;startArrow=none;endArrow=none;exitX=0.5;exitY=0.5;exitPerimeter=0;lucidId=9Ycz~yxfQZIG;entryX=0;entryY=0;entryDx=0;entryDy=0;exitDx=0;exitDy=0;" parent="1" source="7" target="lImU5mxE9tPZku4qOtsT-14" edge="1">
                    <mxGeometry width="100" height="100" relative="1" as="geometry">
                        <Array as="points"/>
                        <mxPoint x="2320" y="848" as="targetPoint"/>
                    </mxGeometry>
                </mxCell>
                <mxCell id="lImU5mxE9tPZku4qOtsT-97" value="" style="html=1;jettySize=18;whiteSpace=wrap;fontSize=13;strokeColor=#333333;strokeOpacity=100;strokeWidth=0.8;rounded=0;startArrow=none;endArrow=none;exitX=0.5;exitY=0.537;exitPerimeter=0;lucidId=lZczDSxRw5xt;entryX=0;entryY=0.5;entryDx=0;entryDy=0;" parent="1" source="lImU5mxE9tPZku4qOtsT-54" target="lImU5mxE9tPZku4qOtsT-15" edge="1">
                    <mxGeometry width="100" height="100" relative="1" as="geometry">
                        <Array as="points"/>
                        <mxPoint x="2520" y="1040" as="targetPoint"/>
                    </mxGeometry>
                </mxCell>
                <mxCell id="lImU5mxE9tPZku4qOtsT-98" value="" style="html=1;jettySize=18;whiteSpace=wrap;fontSize=13;strokeColor=#333333;strokeOpacity=100;strokeWidth=0.8;rounded=0;startArrow=none;endArrow=none;exitX=0.488;exitY=0.5;exitPerimeter=0;lucidId=rZcznPvrOlgP;entryX=0;entryY=0.5;entryDx=0;entryDy=0;" parent="1" source="lImU5mxE9tPZku4qOtsT-54" target="lImU5mxE9tPZku4qOtsT-17" edge="1">
                    <mxGeometry width="100" height="100" relative="1" as="geometry">
                        <Array as="points"/>
                        <mxPoint x="2600" y="1380" as="targetPoint"/>
                    </mxGeometry>
                </mxCell>
                <mxCell id="lImU5mxE9tPZku4qOtsT-99" value="" style="html=1;jettySize=18;whiteSpace=wrap;fontSize=13;strokeColor=#333333;strokeOpacity=100;strokeWidth=0.8;rounded=0;startArrow=none;endArrow=none;exitX=0.513;exitY=0.5;exitPerimeter=0;lucidId=xZczZ3zhUWlJ;entryX=0;entryY=0.5;entryDx=0;entryDy=0;" parent="1" source="lImU5mxE9tPZku4qOtsT-54" target="lImU5mxE9tPZku4qOtsT-18" edge="1">
                    <mxGeometry width="100" height="100" relative="1" as="geometry">
                        <Array as="points"/>
                        <mxPoint x="2590" y="1430" as="targetPoint"/>
                    </mxGeometry>
                </mxCell>
                <mxCell id="lImU5mxE9tPZku4qOtsT-100" value="" style="html=1;jettySize=18;whiteSpace=wrap;fontSize=13;strokeColor=#333333;strokeOpacity=100;strokeWidth=0.8;rounded=0;startArrow=none;endArrow=none;lucidId=WZczoNAO7BcZ;exitX=0.5;exitY=0.5;exitDx=0;exitDy=0;exitPerimeter=0;entryX=0;entryY=0.5;entryDx=0;entryDy=0;" parent="1" source="lImU5mxE9tPZku4qOtsT-54" target="lImU5mxE9tPZku4qOtsT-19" edge="1">
                    <mxGeometry width="100" height="100" relative="1" as="geometry">
                        <Array as="points"/>
                        <mxPoint x="2842" y="821" as="sourcePoint"/>
                        <mxPoint x="2490" y="1890" as="targetPoint"/>
                    </mxGeometry>
                </mxCell>
                <mxCell id="lImU5mxE9tPZku4qOtsT-109" value="" style="html=1;jettySize=18;whiteSpace=wrap;fontSize=13;strokeColor=#333333;strokeOpacity=100;strokeWidth=0.8;rounded=0;startArrow=none;endArrow=none;entryX=0;entryY=0.5;lucidId=WZczoNAO7BcZ;entryDx=0;entryDy=0;exitX=0.5;exitY=0.5;exitDx=0;exitDy=0;exitPerimeter=0;" parent="1" source="lImU5mxE9tPZku4qOtsT-4" target="lImU5mxE9tPZku4qOtsT-101" edge="1">
                    <mxGeometry width="100" height="100" relative="1" as="geometry">
                        <Array as="points"/>
                        <mxPoint x="1010" y="1073" as="sourcePoint"/>
                        <mxPoint x="1467" y="1896" as="targetPoint"/>
                    </mxGeometry>
                </mxCell>
                <mxCell id="lImU5mxE9tPZku4qOtsT-111" value="" style="html=1;jettySize=18;whiteSpace=wrap;fontSize=13;strokeColor=#333333;strokeOpacity=100;strokeWidth=0.8;rounded=0;startArrow=none;endArrow=none;entryX=0.008;entryY=0.407;lucidId=WZczoNAO7BcZ;entryDx=0;entryDy=0;exitX=0.5;exitY=0.5;exitDx=0;exitDy=0;exitPerimeter=0;entryPerimeter=0;" parent="1" source="lImU5mxE9tPZku4qOtsT-4" target="lImU5mxE9tPZku4qOtsT-104" edge="1">
                    <mxGeometry width="100" height="100" relative="1" as="geometry">
                        <Array as="points"/>
                        <mxPoint x="1030" y="1053" as="sourcePoint"/>
                        <mxPoint x="1495" y="1987" as="targetPoint"/>
                    </mxGeometry>
                </mxCell>
                <mxCell id="lImU5mxE9tPZku4qOtsT-86" value="" style="html=1;jettySize=18;whiteSpace=wrap;fontSize=13;strokeColor=#333333;strokeOpacity=100;strokeWidth=0.8;rounded=0;startArrow=none;endArrow=none;exitX=0.5;exitY=0.5;exitPerimeter=0;entryX=0;entryY=0.5;lucidId=XWczGqgOvYOB;exitDx=0;exitDy=0;entryDx=0;entryDy=0;" parent="1" source="lImU5mxE9tPZku4qOtsT-54" target="lImU5mxE9tPZku4qOtsT-5" edge="1">
                    <mxGeometry width="100" height="100" relative="1" as="geometry">
                        <Array as="points"/>
                        <mxPoint x="2879.9999999999995" y="1441.75" as="sourcePoint"/>
                    </mxGeometry>
                </mxCell>
                <mxCell id="lImU5mxE9tPZku4qOtsT-115" value="" style="html=1;jettySize=18;whiteSpace=wrap;fontSize=13;strokeColor=#333333;strokeOpacity=100;dashed=1;fixDash=1;dashPattern=16 6;strokeWidth=0.8;rounded=0;startArrow=none;endArrow=block;endFill=1;exitX=1.006;exitY=0.5;exitPerimeter=0;lucidId=qVcz-nqJ.ps-;entryX=0;entryY=0.5;entryDx=0;entryDy=0;" parent="1" source="lImU5mxE9tPZku4qOtsT-114" target="lImU5mxE9tPZku4qOtsT-3" edge="1">
                    <mxGeometry width="100" height="100" relative="1" as="geometry">
                        <Array as="points"/>
                        <mxPoint x="2920" y="960" as="targetPoint"/>
                    </mxGeometry>
                </mxCell>
                <mxCell id="lImU5mxE9tPZku4qOtsT-116" value="" style="html=1;jettySize=18;whiteSpace=wrap;fontSize=13;strokeColor=#333333;strokeOpacity=100;strokeWidth=0.8;rounded=0;startArrow=none;endArrow=none;exitX=0.5;exitY=0.5;exitPerimeter=0;entryX=-0.006;entryY=0.5;entryPerimeter=0;lucidId=vYczp.t-snrO;exitDx=0;exitDy=0;" parent="1" source="lImU5mxE9tPZku4qOtsT-54" target="lImU5mxE9tPZku4qOtsT-114" edge="1">
                    <mxGeometry width="100" height="100" relative="1" as="geometry">
                        <Array as="points"/>
                        <mxPoint x="2830" y="1349" as="sourcePoint"/>
                    </mxGeometry>
                </mxCell>
                <mxCell id="lImU5mxE9tPZku4qOtsT-139" value="guest" style="html=1;overflow=block;blockSpacing=1;shape=umlActor;labelPosition=center;verticalLabelPosition=bottom;verticalAlign=top;whiteSpace=nowrap;fontSize=13;fontColor=#333333;align=center;spacing=0;strokeColor=#333333;strokeOpacity=100;fillOpacity=100;fillColor=#ffffff;strokeWidth=1.5;lucidId=tBczUUkCsLpC;" parent="1" vertex="1">
                    <mxGeometry x="925" y="469" width="69" height="139" as="geometry"/>
                </mxCell>
                <mxCell id="lImU5mxE9tPZku4qOtsT-156" value="" style="html=1;jettySize=18;whiteSpace=wrap;fontSize=13;strokeColor=#333333;strokeOpacity=100;strokeWidth=0.8;rounded=0;startArrow=none;endArrow=none;exitX=0.5;exitY=0.537;exitPerimeter=0;lucidId=lZczDSxRw5xt;entryX=0;entryY=0.5;entryDx=0;entryDy=0;" parent="1" source="lImU5mxE9tPZku4qOtsT-139" target="lImU5mxE9tPZku4qOtsT-15" edge="1">
                    <mxGeometry width="100" height="100" relative="1" as="geometry">
                        <Array as="points"/>
                        <mxPoint x="1500" y="820" as="targetPoint"/>
                    </mxGeometry>
                </mxCell>
                <mxCell id="lImU5mxE9tPZku4qOtsT-164" value="" style="html=1;jettySize=18;whiteSpace=wrap;fontSize=13;strokeColor=#333333;strokeOpacity=100;strokeWidth=0.8;rounded=0;startArrow=none;endArrow=none;lucidId=lZczDSxRw5xt;exitX=0.516;exitY=0.538;exitDx=0;exitDy=0;exitPerimeter=0;entryX=0;entryY=0.5;entryDx=0;entryDy=0;" parent="1" source="lImU5mxE9tPZku4qOtsT-139" target="lImU5mxE9tPZku4qOtsT-137" edge="1">
                    <mxGeometry width="100" height="100" relative="1" as="geometry">
                        <Array as="points"/>
                        <mxPoint x="1352" y="961" as="sourcePoint"/>
                        <mxPoint x="1210" y="140" as="targetPoint"/>
                    </mxGeometry>
                </mxCell>
                <mxCell id="lImU5mxE9tPZku4qOtsT-169" value="" style="html=1;jettySize=18;whiteSpace=wrap;fontSize=13;strokeColor=#333333;strokeOpacity=100;strokeWidth=0.8;rounded=0;startArrow=none;endArrow=none;lucidId=WZczoNAO7BcZ;entryX=0;entryY=0.5;entryDx=0;entryDy=0;exitX=0.5;exitY=0.5;exitDx=0;exitDy=0;exitPerimeter=0;" parent="1" source="lImU5mxE9tPZku4qOtsT-4" target="lImU5mxE9tPZku4qOtsT-167" edge="1">
                    <mxGeometry width="100" height="100" relative="1" as="geometry">
                        <Array as="points"/>
                        <mxPoint x="1030" y="1070" as="sourcePoint"/>
                        <mxPoint x="1550" y="2020" as="targetPoint"/>
                    </mxGeometry>
                </mxCell>
                <mxCell id="lImU5mxE9tPZku4qOtsT-101" value="change roles" style="html=1;overflow=block;blockSpacing=1;whiteSpace=wrap;ellipse;fontSize=13;spacing=3.8;strokeColor=#333333;strokeOpacity=100;fillOpacity=100;fillColor=#ffffff;strokeWidth=1.5;lucidId=5RczCsYFRNHl;" parent="1" vertex="1">
                    <mxGeometry x="1530" y="2035" width="120" height="90" as="geometry"/>
                </mxCell>
                <mxCell id="lImU5mxE9tPZku4qOtsT-104" value="update account informations" style="html=1;overflow=block;blockSpacing=1;whiteSpace=wrap;ellipse;fontSize=13;spacing=3.8;strokeColor=#333333;strokeOpacity=100;fillOpacity=100;fillColor=#ffffff;strokeWidth=1.5;lucidId=5RczCsYFRNHl;" parent="1" vertex="1">
                    <mxGeometry x="1530" y="2135" width="120" height="90" as="geometry"/>
                </mxCell>
                <mxCell id="lImU5mxE9tPZku4qOtsT-3" value="authentificated" style="html=1;overflow=block;blockSpacing=1;whiteSpace=wrap;ellipse;fontSize=13;spacing=3.8;strokeColor=#333333;strokeOpacity=100;fillOpacity=100;fillColor=#ffffff;strokeWidth=1.5;lucidId=oBcz4oxR1ypY;" parent="1" vertex="1">
                    <mxGeometry x="1990" y="890" width="120" height="90" as="geometry"/>
                </mxCell>
                <mxCell id="lImU5mxE9tPZku4qOtsT-108" value="" style="html=1;jettySize=18;whiteSpace=wrap;fontSize=13;strokeColor=#333333;strokeOpacity=100;dashed=1;fixDash=1;dashPattern=16 6;strokeWidth=0.8;rounded=0;startArrow=none;endArrow=block;endFill=1;exitX=1;exitY=0.5;lucidId=pWczVvhZtqHQ;exitDx=0;exitDy=0;entryX=0;entryY=0.5;entryDx=0;entryDy=0;" parent="1" source="lImU5mxE9tPZku4qOtsT-104" target="lImU5mxE9tPZku4qOtsT-3" edge="1">
                    <mxGeometry width="100" height="100" relative="1" as="geometry">
                        <Array as="points"/>
                        <mxPoint x="1730" y="1986" as="sourcePoint"/>
                        <mxPoint x="2097" y="1180" as="targetPoint"/>
                    </mxGeometry>
                </mxCell>
                <mxCell id="lImU5mxE9tPZku4qOtsT-107" value="" style="html=1;jettySize=18;whiteSpace=wrap;fontSize=13;strokeColor=#333333;strokeOpacity=100;dashed=1;fixDash=1;dashPattern=16 6;strokeWidth=0.8;rounded=0;startArrow=none;endArrow=block;endFill=1;exitX=1;exitY=0.5;entryX=0;entryY=0.5;lucidId=pWczVvhZtqHQ;exitDx=0;exitDy=0;entryDx=0;entryDy=0;" parent="1" source="lImU5mxE9tPZku4qOtsT-101" target="lImU5mxE9tPZku4qOtsT-3" edge="1">
                    <mxGeometry width="100" height="100" relative="1" as="geometry">
                        <Array as="points"/>
                        <mxPoint x="1661" y="1806" as="sourcePoint"/>
                        <mxPoint x="2028" y="980" as="targetPoint"/>
                    </mxGeometry>
                </mxCell>
                <mxCell id="lImU5mxE9tPZku4qOtsT-20" value="have an acoount" style="html=1;overflow=block;blockSpacing=1;whiteSpace=wrap;ellipse;fontSize=13;spacing=3.8;strokeColor=#333333;strokeOpacity=100;fillOpacity=100;fillColor=#ffffff;strokeWidth=1.5;lucidId=gTczunz8T7rY;" parent="1" vertex="1">
                    <mxGeometry x="1860" y="135" width="120" height="90" as="geometry"/>
                </mxCell>
                <mxCell id="lImU5mxE9tPZku4qOtsT-5" value="Reset password" style="html=1;overflow=block;blockSpacing=1;whiteSpace=wrap;ellipse;fontSize=13;spacing=3.8;strokeColor=#333333;strokeOpacity=100;fillOpacity=100;fillColor=#ffffff;strokeWidth=1.5;lucidId=7BczihfRR2QG;" parent="1" vertex="1">
                    <mxGeometry x="1520" y="135" width="120" height="90" as="geometry"/>
                </mxCell>
                <mxCell id="lImU5mxE9tPZku4qOtsT-125" value="&amp;lt;&amp;lt;include&amp;gt;&amp;gt;" style="endArrow=open;endSize=12;dashed=1;html=1;rounded=0;fontSize=20;entryX=0;entryY=0.5;entryDx=0;entryDy=0;exitX=1;exitY=0.5;exitDx=0;exitDy=0;" parent="1" source="lImU5mxE9tPZku4qOtsT-5" target="lImU5mxE9tPZku4qOtsT-20" edge="1">
                    <mxGeometry width="160" relative="1" as="geometry">
                        <mxPoint x="1680" y="230" as="sourcePoint"/>
                        <mxPoint x="1840" y="230" as="targetPoint"/>
                    </mxGeometry>
                </mxCell>
                <mxCell id="lImU5mxE9tPZku4qOtsT-13" value="Delete category" style="html=1;overflow=block;blockSpacing=1;whiteSpace=wrap;ellipse;fontSize=13;spacing=3.8;strokeColor=#333333;strokeOpacity=100;fillOpacity=100;fillColor=#ffffff;strokeWidth=1.5;lucidId=-PczV2sL6_gl;" parent="1" vertex="1">
                    <mxGeometry x="1530" y="1060" width="120" height="90" as="geometry"/>
                </mxCell>
                <mxCell id="lImU5mxE9tPZku4qOtsT-29" value="" style="html=1;jettySize=18;whiteSpace=wrap;fontSize=13;strokeColor=#333333;strokeOpacity=100;dashed=1;fixDash=1;dashPattern=16 6;strokeWidth=0.8;rounded=0;startArrow=none;endArrow=block;endFill=1;exitX=1.006;exitY=0.5;exitPerimeter=0;entryX=0;entryY=0.5;lucidId=JVczQAVaxc5T;entryDx=0;entryDy=0;" parent="1" source="lImU5mxE9tPZku4qOtsT-13" target="lImU5mxE9tPZku4qOtsT-3" edge="1">
                    <mxGeometry width="100" height="100" relative="1" as="geometry">
                        <Array as="points"/>
                    </mxGeometry>
                </mxCell>
                <mxCell id="lImU5mxE9tPZku4qOtsT-12" value="show categories" style="html=1;overflow=block;blockSpacing=1;whiteSpace=wrap;ellipse;fontSize=13;spacing=3.8;strokeColor=#333333;strokeOpacity=100;fillOpacity=100;fillColor=#ffffff;strokeWidth=1.5;lucidId=-PczbgAnmTSz;" parent="1" vertex="1">
                    <mxGeometry x="1530" y="950" width="120" height="90" as="geometry"/>
                </mxCell>
                <mxCell id="lImU5mxE9tPZku4qOtsT-28" value="" style="html=1;jettySize=18;whiteSpace=wrap;fontSize=13;strokeColor=#333333;strokeOpacity=100;dashed=1;fixDash=1;dashPattern=16 6;strokeWidth=0.8;rounded=0;startArrow=none;endArrow=block;endFill=1;exitX=1.006;exitY=0.5;exitPerimeter=0;entryX=0;entryY=0.5;lucidId=FVcz3ZMvy-YM;entryDx=0;entryDy=0;" parent="1" source="lImU5mxE9tPZku4qOtsT-12" target="lImU5mxE9tPZku4qOtsT-3" edge="1">
                    <mxGeometry width="100" height="100" relative="1" as="geometry">
                        <Array as="points"/>
                    </mxGeometry>
                </mxCell>
                <mxCell id="lImU5mxE9tPZku4qOtsT-11" value="update category" style="html=1;overflow=block;blockSpacing=1;whiteSpace=wrap;ellipse;fontSize=13;spacing=3.8;strokeColor=#333333;strokeOpacity=100;fillOpacity=100;fillColor=#ffffff;strokeWidth=1.5;lucidId=-PczTd2D7~yg;" parent="1" vertex="1">
                    <mxGeometry x="1530" y="840" width="120" height="90" as="geometry"/>
                </mxCell>
                <mxCell id="lImU5mxE9tPZku4qOtsT-27" value="" style="html=1;jettySize=18;whiteSpace=wrap;fontSize=13;strokeColor=#333333;strokeOpacity=100;dashed=1;fixDash=1;dashPattern=16 6;strokeWidth=0.8;rounded=0;startArrow=none;endArrow=block;endFill=1;exitX=1.006;exitY=0.5;exitPerimeter=0;entryX=0.001;entryY=0.518;entryPerimeter=0;lucidId=BVczU2Holzfv;entryDx=0;entryDy=0;" parent="1" source="lImU5mxE9tPZku4qOtsT-11" target="lImU5mxE9tPZku4qOtsT-3" edge="1">
                    <mxGeometry width="100" height="100" relative="1" as="geometry">
                        <Array as="points"/>
                    </mxGeometry>
                </mxCell>
                <mxCell id="lImU5mxE9tPZku4qOtsT-10" value="create category" style="html=1;overflow=block;blockSpacing=1;whiteSpace=wrap;ellipse;fontSize=13;spacing=3.8;strokeColor=#333333;strokeOpacity=100;fillOpacity=100;fillColor=#ffffff;strokeWidth=1.5;lucidId=-PczYdxbE~mt;" parent="1" vertex="1">
                    <mxGeometry x="1530" y="730" width="120" height="90" as="geometry"/>
                </mxCell>
                <mxCell id="lImU5mxE9tPZku4qOtsT-26" value="" style="html=1;jettySize=18;whiteSpace=wrap;fontSize=13;strokeColor=#333333;strokeOpacity=100;dashed=1;fixDash=1;dashPattern=16 6;strokeWidth=0.8;rounded=0;startArrow=none;endArrow=block;endFill=1;exitX=1.006;exitY=0.5;exitPerimeter=0;entryX=0;entryY=0.5;lucidId=qVcz-nqJ.ps-;entryDx=0;entryDy=0;" parent="1" source="lImU5mxE9tPZku4qOtsT-10" target="lImU5mxE9tPZku4qOtsT-3" edge="1">
                    <mxGeometry width="100" height="100" relative="1" as="geometry">
                        <Array as="points"/>
                    </mxGeometry>
                </mxCell>
                <mxCell id="lImU5mxE9tPZku4qOtsT-167" value="Logout" style="html=1;overflow=block;blockSpacing=1;whiteSpace=wrap;ellipse;fontSize=13;spacing=3.8;strokeColor=#333333;strokeOpacity=100;fillOpacity=100;fillColor=#ffffff;strokeWidth=1.5;lucidId=5RczCsYFRNHl;" parent="1" vertex="1">
                    <mxGeometry x="1530" y="2255" width="120" height="90" as="geometry"/>
                </mxCell>
                <mxCell id="lImU5mxE9tPZku4qOtsT-175" value="" style="html=1;jettySize=18;whiteSpace=wrap;fontSize=13;strokeColor=#333333;strokeOpacity=100;dashed=1;fixDash=1;dashPattern=16 6;strokeWidth=0.8;rounded=0;startArrow=none;endArrow=block;endFill=1;exitX=1;exitY=0.5;lucidId=pWczVvhZtqHQ;exitDx=0;exitDy=0;entryX=0;entryY=0.5;entryDx=0;entryDy=0;" parent="1" source="lImU5mxE9tPZku4qOtsT-167" target="lImU5mxE9tPZku4qOtsT-3" edge="1">
                    <mxGeometry width="100" height="100" relative="1" as="geometry">
                        <Array as="points"/>
                        <mxPoint x="1700" y="2129" as="sourcePoint"/>
                        <mxPoint x="1987" y="1090" as="targetPoint"/>
                    </mxGeometry>
                </mxCell>
                <mxCell id="lImU5mxE9tPZku4qOtsT-60" value="create articles" style="html=1;overflow=block;blockSpacing=1;whiteSpace=wrap;ellipse;fontSize=13;spacing=3.8;strokeColor=#333333;strokeOpacity=100;fillOpacity=100;fillColor=#ffffff;strokeWidth=1.5;lucidId=-PczYdxbE~mt;" parent="1" vertex="1">
                    <mxGeometry x="1530" y="1194" width="120" height="90" as="geometry"/>
                </mxCell>
                <mxCell id="lImU5mxE9tPZku4qOtsT-137" value="Register" style="html=1;overflow=block;blockSpacing=1;whiteSpace=wrap;ellipse;fontSize=13;spacing=3.8;strokeColor=#333333;strokeOpacity=100;fillOpacity=100;fillColor=#ffffff;strokeWidth=1.5;lucidId=7BczihfRR2QG;" parent="1" vertex="1">
                    <mxGeometry x="1520" y="27" width="120" height="90" as="geometry"/>
                </mxCell>
                <mxCell id="lImU5mxE9tPZku4qOtsT-114" value="create comments" style="html=1;overflow=block;blockSpacing=1;whiteSpace=wrap;ellipse;fontSize=13;spacing=3.8;strokeColor=#333333;strokeOpacity=100;fillOpacity=100;fillColor=#ffffff;strokeWidth=1.5;lucidId=-PczYdxbE~mt;" parent="1" vertex="1">
                    <mxGeometry x="1530" y="1620" width="120" height="90" as="geometry"/>
                </mxCell>
                <mxCell id="7" value="author" style="html=1;overflow=block;blockSpacing=1;shape=umlActor;labelPosition=center;verticalLabelPosition=bottom;verticalAlign=top;whiteSpace=nowrap;fontSize=13;fontColor=#333333;align=center;spacing=0;strokeColor=#333333;strokeOpacity=100;fillOpacity=100;fillColor=#ffffff;strokeWidth=1.5;lucidId=tBczUUkCsLpC;" parent="1" vertex="1">
                    <mxGeometry x="920" y="1120" width="65" height="135" as="geometry"/>
                </mxCell>
                <mxCell id="9" value="" style="html=1;jettySize=18;whiteSpace=wrap;fontSize=13;strokeColor=#333333;strokeOpacity=100;strokeWidth=0.8;rounded=0;startArrow=none;endArrow=none;exitX=0.5;exitY=0.5;exitPerimeter=0;lucidId=lZczDSxRw5xt;entryX=0;entryY=0.5;entryDx=0;entryDy=0;exitDx=0;exitDy=0;" parent="1" source="7" target="lImU5mxE9tPZku4qOtsT-15" edge="1">
                    <mxGeometry width="100" height="100" relative="1" as="geometry">
                        <Array as="points"/>
                        <mxPoint x="1540" y="1460" as="targetPoint"/>
                        <mxPoint x="962.5" y="1464.995" as="sourcePoint"/>
                    </mxGeometry>
                </mxCell>
                <mxCell id="10" value="" style="html=1;jettySize=18;whiteSpace=wrap;fontSize=13;strokeColor=#333333;strokeOpacity=100;strokeWidth=0.8;rounded=0;startArrow=none;endArrow=none;lucidId=dZcze0sJb3LS;entryX=0;entryY=0.5;entryDx=0;entryDy=0;exitX=0.5;exitY=0.5;exitDx=0;exitDy=0;exitPerimeter=0;" parent="1" source="7" target="lImU5mxE9tPZku4qOtsT-16" edge="1">
                    <mxGeometry width="100" height="100" relative="1" as="geometry">
                        <Array as="points"/>
                        <mxPoint x="1540" y="1565" as="targetPoint"/>
                        <mxPoint x="962.5" y="1460" as="sourcePoint"/>
                    </mxGeometry>
                </mxCell>
                <mxCell id="12" value="" style="html=1;jettySize=18;whiteSpace=wrap;fontSize=13;strokeColor=#333333;strokeOpacity=100;strokeWidth=0.8;rounded=0;startArrow=none;endArrow=none;exitX=0.5;exitY=0.5;exitPerimeter=0;entryX=0;entryY=0.5;lucidId=XWczGqgOvYOB;exitDx=0;exitDy=0;entryDx=0;entryDy=0;" parent="1" source="7" target="lImU5mxE9tPZku4qOtsT-5" edge="1">
                    <mxGeometry width="100" height="100" relative="1" as="geometry">
                        <Array as="points"/>
                        <mxPoint x="962.5" y="1460" as="sourcePoint"/>
                        <mxPoint x="1530" y="190" as="targetPoint"/>
                    </mxGeometry>
                </mxCell>
                <mxCell id="13" value="" style="html=1;jettySize=18;whiteSpace=wrap;fontSize=13;strokeColor=#333333;strokeOpacity=100;strokeWidth=0.8;rounded=0;startArrow=none;endArrow=none;entryX=0;entryY=0.5;lucidId=WZczoNAO7BcZ;entryDx=0;entryDy=0;exitX=0.5;exitY=0.5;exitDx=0;exitDy=0;exitPerimeter=0;" parent="1" source="7" target="lImU5mxE9tPZku4qOtsT-104" edge="1">
                    <mxGeometry width="100" height="100" relative="1" as="geometry">
                        <Array as="points"/>
                        <mxPoint x="900" y="1330" as="sourcePoint"/>
                        <mxPoint x="1475.96" y="2533.63" as="targetPoint"/>
                    </mxGeometry>
                </mxCell>
                <mxCell id="14" value="" style="html=1;jettySize=18;whiteSpace=wrap;fontSize=13;strokeColor=#333333;strokeOpacity=100;strokeWidth=0.8;rounded=0;startArrow=none;endArrow=none;entryX=0;entryY=0.5;lucidId=WZczoNAO7BcZ;entryDx=0;entryDy=0;exitX=0.5;exitY=0.5;exitDx=0;exitDy=0;exitPerimeter=0;" parent="1" source="lImU5mxE9tPZku4qOtsT-54" target="lImU5mxE9tPZku4qOtsT-104" edge="1">
                    <mxGeometry width="100" height="100" relative="1" as="geometry">
                        <Array as="points"/>
                        <mxPoint x="962.5" y="1197.5" as="sourcePoint"/>
                        <mxPoint x="1540.0000000000073" y="2190" as="targetPoint"/>
                    </mxGeometry>
                </mxCell>
                <mxCell id="16" value="" style="html=1;jettySize=18;whiteSpace=wrap;fontSize=13;strokeColor=#333333;strokeOpacity=100;strokeWidth=0.8;rounded=0;startArrow=none;endArrow=none;entryX=0;entryY=0.5;lucidId=WZczoNAO7BcZ;entryDx=0;entryDy=0;exitX=0.5;exitY=0.5;exitDx=0;exitDy=0;exitPerimeter=0;" parent="1" source="lImU5mxE9tPZku4qOtsT-54" target="lImU5mxE9tPZku4qOtsT-167" edge="1">
                    <mxGeometry width="100" height="100" relative="1" as="geometry">
                        <Array as="points"/>
                        <mxPoint x="962.5" y="1460" as="sourcePoint"/>
                        <mxPoint x="1539.999999999997" y="2190" as="targetPoint"/>
                    </mxGeometry>
                </mxCell>
                <mxCell id="17" value="" style="html=1;jettySize=18;whiteSpace=wrap;fontSize=13;strokeColor=#333333;strokeOpacity=100;strokeWidth=0.8;rounded=0;startArrow=none;endArrow=none;lucidId=WZczoNAO7BcZ;entryX=0;entryY=0.5;entryDx=0;entryDy=0;exitX=0.5;exitY=0.5;exitDx=0;exitDy=0;exitPerimeter=0;" parent="1" source="7" target="lImU5mxE9tPZku4qOtsT-167" edge="1">
                    <mxGeometry width="100" height="100" relative="1" as="geometry">
                        <Array as="points"/>
                        <mxPoint x="920" y="1360" as="sourcePoint"/>
                        <mxPoint x="1507.5" y="2334" as="targetPoint"/>
                    </mxGeometry>
                </mxCell>
            </root>
        </mxGraphModel>
    </diagram>
</mxfile>
